# xmcd
#
# Track frame offsets:
#	150
#	20398
#	34978
#	49722
#	65850
#	81973
#	101325
#	125924
#	138411
#	152442
#	172116
#	193063
#	208392
#	219367
#	230009
#	246087
#	263361
#	280501
#	298427
#	313024
#	329391
#
# Disc length: 4607 seconds
#
# Revision: 0
# Processed by: cddbd v1.5.1PL0 Copyright (c) Steve Scherf et al.
# Submitted via: dBpowerAMP V4.0
#
DISCID=4411fd15
DTITLE=Merry Men, The - Beautiful Barbados
DYEAR=1900
DGENRE=Calypso
TTITLE0=Beautiful Barbados
TTITLE1=Island Living
TTITLE2=Tropical Delight
TTITLE3=Yellow Bird
TTITLE4=Come Back Liza, Zombie Jamboree
TTITLE5=Sloop John B
TTITLE6=Hot Hot Hot
TTITLE7=How I Wish You Were Here
TTITLE8=Folk Medley
TTITLE9=Island Woman
TTITLE10=Big Bamboo
TTITLE11=Bathsheba
TTITLE12=Legend Of Sam Lord
TTITLE13=Day-O
TTITLE14=Calypso World
TTITLE15=Matilda
TTITLE16=Island On My Mind
TTITLE17=Brown Skin Girl
TTITLE18=Jamaica Farewell
TTITLE19=Almost Like Heaven
TTITLE20=Barbados I Love
EXTD=
EXTT0=
EXTT1=
EXTT2=
EXTT3=
EXTT4=
EXTT5=
EXTT6=
EXTT7=
EXTT8=
EXTT9=
EXTT10=
EXTT11=
EXTT12=
EXTT13=
EXTT14=
EXTT15=
EXTT16=
EXTT17=
EXTT18=
EXTT19=
EXTT20=
PLAYORDER=
